<?xml version="1.0" encoding="UTF-8"?> <svg xmlns="http://www.w3.org/2000/svg" id="Layer_1" viewBox="0 0 992.26 165.85"><defs><style>.cls-1{fill:#fff;}.cls-2{fill:#84bd41;}</style></defs><path class="cls-2" d="m119.28,29.11c-3.12-.83-6.14-1.58-9.19-2.14-3.14-.58-6.27-1.21-9.41-1.72-3.06-.49-6.14-.86-9.18-1.28-.09-2.01.25-5.17.66-6.39,5.27-.16,26.71,3.85,33.75,6.46.37.72.2,1.51.2,2.27.01,11.06,0,22.13,0,33.19,0,13.05-.03,26.1.02,39.15.01,3.67-.64,7.17-1.94,10.59-3.46,9.04-8.45,17.15-14.65,24.54-8.45,10.06-18.62,18.03-30.07,24.4-5.27,2.93-10.74,5.46-16.48,7.67-2.3-.98-4.66-1.93-6.98-2.98-10.08-4.54-19.45-10.24-27.86-17.44-10.04-8.6-18.2-18.67-23.86-30.67-1.18-2.49-2.14-5.09-3.12-7.67C.32,104.88-.02,102.57,0,100.2c.03-4.89,0-9.79,0-14.68,0-19.65,0-39.29,0-58.94v-2.63c.52-.21.95-.43,1.41-.55,7.31-2.04,14.73-3.63,22.24-4.74,2.52-.37,5.05-.75,7.58-1.1.84-.12,1.69-.14,2.66-.22.64,2.11.67,4.19.71,6.39-.45.14-.83.33-1.22.38-6.42.67-12.77,1.8-19.1,3.1-2.01.41-4.02.88-6.02,1.34-.47.11-.92.29-1.45.47-.04.71-.1,1.34-.1,1.96,0,22.63.02,45.25-.03,67.88,0,3.27.76,6.31,1.98,9.28,2.68,6.53,6.19,12.56,10.52,18.16,10.53,13.62,24.02,23.36,39.59,30.4,1.03.47,2.09.88,3.11,1.37.76.37,1.44.37,2.23.04,16.94-7.09,31.52-17.34,42.86-31.93,4.11-5.29,7.47-11.04,10.06-17.22.57-1.37,1.04-2.79,1.49-4.2.61-1.9.87-3.85.86-5.86-.02-22.55,0-45.11-.01-67.66,0-.69-.06-1.39-.09-2.14Z"></path><path class="cls-1" d="m855.54,117.64v3.51c-.4.05-.74.15-1.07.14-10.86-.26-21.71-.2-32.57,0-.28,0-.56-.04-.92-.08-.47-1.16-.26-2.32-.14-3.58,1.43-.33,2.8-.64,4.17-.98.69-.17,1.38-.34,2.03-.62,1.01-.44,1.54-1.25,1.43-2.37-.05-.56-.16-1.13-.37-1.64-1.58-3.87-3.19-7.73-4.8-11.59-.11-.25-.3-.47-.5-.77-7.85-.4-15.72-.27-23.58-.03-.21.27-.43.47-.54.72-1.6,3.86-3.2,7.73-4.75,11.61-.28.71-.44,1.5-.52,2.26-.08.77.31,1.4,1.04,1.69.72.29,1.47.51,2.23.69,1.43.35,2.88.66,4.33.99.32,1.22.13,2.32.13,3.56-.68.04-1.22.11-1.77.09-4.18-.12-8.37-.33-12.55-.38-6.39-.08-12.77-.1-19.16-.08-2.48,0-4.96.21-7.44.32-1.34.06-2.69.12-3.94.17-.73-.53-.85-1.26-1.13-1.89-4.11-9.42-8.49-18.72-13.13-27.89-.35-.69-.72-1.37-1.13-2.13-1.98-.12-3.94-.24-6.02-.36-.07.5-.19.9-.19,1.3.07,6.52.15,13.05.25,19.57.02.99.11,1.98.23,2.97.18,1.57,1,2.61,2.6,2.96,1.8.4,3.59.81,5.39,1.22.82.18,1.65.36,2.54.55.38,1.14.22,2.26.13,3.49-.4.07-.8.2-1.2.2-1.56-.02-3.12-.05-4.68-.15-7.23-.48-14.47-.38-21.71-.23-2.69.06-5.39.25-8.08.36-.55.02-1.1-.02-1.76-.03-.26-1.21-.23-2.31-.04-3.48,1.52-.64,3.17-.67,4.73-1.09,1.16-.31,2.33-.6,3.51-.85,1.51-.32,2.33-1.3,2.65-2.72.18-.82.22-1.68.25-2.53.42-11.91.36-23.83.29-35.74-.03-4.4-.18-8.79-.33-13.18-.03-.98-.21-1.97-.44-2.93-.29-1.19-1.07-2-2.27-2.31-1.58-.4-3.16-.77-4.75-1.12-1.17-.26-2.35-.45-3.52-.68-.43-1.21-.33-2.29-.11-3.51.78-.02,1.47-.07,2.16-.05,4.75.14,9.5.39,14.26.42,4.32.03,8.65-.18,12.98-.26,4.11-.07,8.23-.18,12.34-.12,1.75.03,3.53.34,5.25.75,6.28,1.49,10.09,5.59,11.69,11.69,2.17,8.31-1.91,17.16-7.8,21.05-1,.66-2.05,1.26-3.08,1.9-.35.22-.68.45-1.12.75.26.52.46.96.71,1.37,4.14,6.86,8.28,13.72,12.44,20.57.66,1.09,1.39,2.15,2.15,3.17,2.08,2.79,5.02,4.06,8.34,4.61,1.02.17,1.96-.2,2.85-.68,1.54-.83,2.72-2.04,3.5-3.61,1.3-2.6,2.62-5.19,3.88-7.81,6.55-13.6,12.57-27.45,18.66-41.26,1.75-3.95,3.45-7.93,5.18-11.89.31-.71.64-1.41,1.02-2.24.69-.03,1.38-.07,2.08-.08.63,0,1.26.04,1.93.07.21.43.42.79.58,1.18,4.54,11.24,9.54,22.28,14.53,33.32,3.71,8.2,7.5,16.37,11.27,24.54.65,1.41,1.39,2.79,2.14,4.16.99,1.82,2.41,3.1,4.5,3.62,1.57.39,3.11.91,4.75,1.4Zm-120.68-34.67c.16.08.28.18.41.2,2.56.32,5.1.21,7.62-.32,4.16-.87,7.05-3.22,8.23-7.39,1.12-3.92,1.07-7.85-.18-11.72-1.02-3.16-3.17-5.32-6.31-6.44-3.26-1.17-6.53-.82-9.82-.04-.06.37-.15.64-.15.91,0,8.08.02,16.16.04,24.24,0,.2.11.39.16.56Zm85.63,10.83c-1.01-2.69-2.11-5.13-3.11-7.61-.99-2.42-1.98-4.85-3.02-7.24-1.05-2.42-1.91-4.93-3.22-7.41-.26.4-.44.62-.55.87-2.93,6.82-5.86,13.64-8.77,20.47-.12.29-.12.63-.17.96,1.98.25,16.81.25,18.84-.04Z"></path><path class="cls-1" d="m257.73,87.31c.53.94.93,1.68,1.37,2.41,3.66,6.07,7.31,12.15,11,18.21.96,1.57,1.98,3.11,3.07,4.6,2.38,3.26,8.18,6.07,14.01,3.45,1.25-.56,2.12-1.42,2.28-2.84.1-.84.24-1.69.25-2.53.14-9.22.35-18.44.34-27.66-.01-6.03-.37-12.05-.58-18.07-.02-.71-.05-1.42-.07-2.13-.03-.71-.04-1.42-.1-2.13-.22-2.89-.84-3.69-3.67-4.43-1.51-.4-3.05-.65-4.58-.96-.76-.15-1.52-.29-2.25-.43-.47-1.58-.47-1.86-.04-3.64,3.08-.25,6.18.29,9.28.3,3.12,0,6.24.14,9.37.14,3.05,0,6.1-.12,9.15-.12,3.1,0,6.2-.45,9.37-.39.34,1.26.18,2.36.14,3.52-1.66.22-3.19.37-4.71.64-1.18.21-2.35.52-3.51.85-1.46.41-2.23,1.47-2.44,2.92-.14.91-.21,1.83-.24,2.75-.37,15.04-.28,30.07-.06,45.11.03,1.84.15,3.68.2,5.52.05,1.99,1.11,3.19,2.96,3.66,2.06.53,4.15.92,6.22,1.38.47.1.95.21,1.44.32.32,1.19.22,2.3.12,3.37-.1.1-.15.16-.2.2-.05.04-.12.09-.18.09-15.6-.82-31.21-.7-46.83-.49-3.32.04-6.64.33-10.04.51-2.47-5.4-4.88-10.75-7.36-16.07-2.48-5.33-5.05-10.62-7.79-15.85-2.03-.33-4-.19-6.09-.32-.09.59-.23,1.05-.22,1.51.04,2.48.15,4.96.19,7.44.06,4.04.08,8.09.15,12.13.02.99.15,1.97.27,2.96.2,1.53,1.13,2.39,2.59,2.72,1.66.38,3.32.73,4.98,1.11,1.02.23,2.05.47,3.06.7.18,1.26.18,2.37,0,3.6-2.14.09-4.17-.14-6.2-.18-2.13-.04-4.25-.19-6.38-.25-2.06-.06-4.12-.09-6.17-.09s-4.12.02-6.17.08c-2.13.06-4.25.19-6.38.27-2.04.08-4.08.14-6.23.22-.22-1.23-.17-2.34-.04-3.56.47-.13.92-.29,1.39-.39,2.15-.46,4.29-.95,6.45-1.36,2.04-.39,3.06-1.66,3.29-3.63.13-1.05.2-2.12.2-3.18.05-11.21.1-22.41.12-33.62,0-3.9-.04-7.8-.11-11.7-.03-1.34-.2-2.68-.32-4.02-.18-2.02-1.27-3.25-3.25-3.68-1.59-.35-3.19-.68-4.78-1.01-.96-.2-1.92-.39-2.91-.59-.32-1.15-.1-2.2-.18-3.35.48-.09.87-.24,1.27-.23,1.63.02,3.26.06,4.89.14,7.87.41,15.75.45,23.63.16,3.54-.13,7.09-.25,10.64-.31,2.21-.04,4.38.28,6.53.79,6.74,1.58,10.73,5.97,12.1,12.56,1.45,7.03-.75,13.16-5.62,18.35-1.32,1.41-2.99,2.38-4.64,3.36-.6.36-1.21.71-1.98,1.17Zm-20.17-4.03c2.88.2,5.56.28,8.22-.31,4.24-.95,7.07-3.41,8.19-7.67.3-1.16.53-2.35.64-3.54.27-2.85-.04-5.66-1.07-8.34-1.32-3.44-3.87-5.53-7.41-6.36-2.73-.64-5.49-.38-8.2.27-.18.04-.33.22-.54.37,0,8.21,0,16.41,0,24.61,0,.27.09.54.17.97Z"></path><path class="cls-1" d="m369.49,99.86c3.84-8.41,7.49-16.39,11.14-24.38,3.64-7.99,7.06-16.07,10.03-24.32.53-.03.88-.09,1.23-.07,8.44.4,16.88.23,25.33.05.12,0,.25.11.49.23.18,1.04.13,2.14,0,3.39-.79.17-1.53.34-2.28.51-1.8.39-3.6.79-5.4,1.18-1.77.38-2.65,1.55-2.83,3.28-.16,1.48-.34,2.97-.35,4.45-.04,15.18-.05,30.36-.04,45.54,0,1.2.2,2.4.33,3.59.15,1.44,1,2.34,2.33,2.73,1.36.4,2.74.72,4.12,1.02,1.31.29,2.63.52,3.98.78.36,1.19.24,2.29.12,3.51-.52.06-1,.17-1.47.15-9.79-.43-19.59-.29-29.38-.18-1.35.02-2.69.11-4.04.14-.7.02-1.4,0-2.08,0-.46-1.41-.46-1.52-.19-3.64.36-.11.75-.26,1.15-.35,2.01-.43,4.02-.88,6.04-1.24,2.06-.37,3.38-1.58,3.4-4.16.07-8.94.2-17.87.27-26.81.04-5.53,0-11.07,0-16.6,0-.61-.04-1.22-.06-1.98-.8.52-.94,1.25-1.22,1.87-2.42,5.44-4.84,10.88-7.23,16.33-4.96,11.29-9.9,22.59-14.85,33.89-.28.65-.58,1.28-.9,1.98h-4.78c-.59-.49-.76-1.28-1.06-1.98-5.82-13.39-11.63-26.79-17.44-40.18-1.52-3.51-3.06-7.01-4.6-10.52-.22-.5-.33-1.07-.97-1.52-.05.58-.12,1.05-.12,1.51.04,13.41.09,26.81.15,40.22,0,1.63.2,3.26.25,4.89.04,1.49.82,2.41,2.18,2.79,1.5.42,3.03.74,4.55,1.07,1.1.24,2.21.44,3.37.66.31,1.26.24,2.42.07,3.74-9.57-.32-19.04-.31-28.49.02-.41-1.57-.42-1.76-.09-3.72,1.12-.22,2.29-.45,3.46-.68,1.18-.24,2.36-.48,3.54-.74,2.09-.46,3.43-1.63,3.6-3.88.07-.85.19-1.69.2-2.54.04-3.97.04-7.95.09-11.92.13-9.15.29-18.3.41-27.45.04-2.77,0-5.53-.05-8.3-.02-.99-.21-1.97-.32-2.95-.21-1.79-1.29-2.81-2.99-3.14-1.81-.35-3.64-.59-5.46-.89-.97-.16-1.93-.32-2.94-.49-.19-1.25-.18-2.35,0-3.58.48-.04.89-.11,1.29-.1,2.48.06,4.97.18,7.45.19,4.26.03,8.52.01,12.77-.02,1.99-.02,3.97-.12,5.96-.16.42,0,.83.04,1.37.08,3.02,8.26,6.52,16.31,10.02,24.36,3.49,8.04,7.02,16.05,10.94,24.33Z"></path><path class="cls-1" d="m710.19,83.02c-.04,6.02-.7,10.92-2.36,15.65-2.71,7.72-7.31,14.02-14.15,18.64-3.35,2.26-7.02,3.66-10.94,4.51-7.62,1.65-15.24,1.62-22.77-.34-11.89-3.1-19.44-10.7-22.37-22.65-1.85-7.55-1.86-15.16-.08-22.75,2.65-11.28,11.52-21.77,24.65-25.17,8.48-2.19,17.01-2.35,25.42.17,11.51,3.45,18.56,11.26,21.52,22.84.85,3.32,1.03,6.72,1.06,9.1Zm-17.28,1.07c-.29-2.45-.64-6.19-1.19-9.89-.46-3.08-1.28-6.11-2.59-8.95-2.32-5.05-6.08-8.5-11.57-9.78-2.21-.51-4.47-.63-6.76-.3-5.62.8-9.96,3.51-12.77,8.49-.66,1.17-1.2,2.41-1.67,3.66-1.58,4.21-2.45,8.58-2.59,13.07-.11,3.25-.08,6.52,0,9.77.1,3.84.73,7.61,1.77,11.3.97,3.43,2.37,6.66,4.57,9.51,2.2,2.85,5.05,4.72,8.52,5.64,2.99.8,6.04.89,9.06.34,4.16-.75,7.51-2.82,9.92-6.36,1.45-2.13,2.51-4.44,3.19-6.91,1.64-5.99,2.22-12.1,2.1-19.58Z"></path><path class="cls-1" d="m919.07,118.03c-6.74,1.34-13.18,2.74-19.67,3.89-6.24,1.11-12.55,1.3-18.87.75-2.83-.25-5.65-.53-8.41-1.21-10.79-2.69-17.89-9.42-21.45-19.88-1.82-5.37-2.28-10.93-1.94-16.58.22-3.77.8-7.48,2.09-11.03,3.82-10.52,11.19-17.55,21.54-21.55,3.79-1.46,7.75-2.24,11.79-2.67,6.46-.68,12.89-.43,19.32.38,4.37.55,8.68,1.37,12.98,2.28.41.09.81.25,1.28.41.05.34.13.68.14,1.02.11,6.03.21,12.05.31,18.08.01.63,0,1.26,0,2-1.68.43-3.26.27-4.91.13-.17-.44-.34-.82-.47-1.21-.66-2.09-1.32-4.19-1.97-6.29-1.76-5.72-5.9-8.9-11.46-10.31-5.6-1.42-11.25-1.33-16.82.31-5.04,1.49-8.98,4.46-11.74,8.94-2.26,3.67-3.73,7.64-4.44,11.88-.97,5.78-1.01,11.57-.05,17.36.54,3.24,1.47,6.36,3.05,9.25,3.56,6.48,8.99,10.47,16.28,11.85,6.03,1.14,11.84.23,17.58-2.01.07-.52.18-.99.18-1.47,0-5.18,0-10.36-.03-15.53,0-1.2-.2-2.4-.28-3.6-.1-1.47-.94-2.36-2.28-2.74-1.5-.43-3.02-.76-4.54-1.13-.89-.22-1.78-.42-2.63-.62-.47-1.5-.47-1.85-.08-3.62,1.67-.22,3.36.03,5.04.06,1.7.03,3.4.17,5.1.23,1.7.06,3.4.11,5.11.13,1.63.02,3.27.02,4.9-.03,1.7-.04,3.4-.16,5.1-.22,1.7-.06,3.41-.1,5.11-.15,1.69-.05,3.38-.1,5.13-.15.38,1.22.12,2.34.19,3.51-.48.16-.86.33-1.26.42-2.07.49-4.14.96-6.21,1.46-1.75.42-2.62,1.56-2.71,3.34-.08,1.63-.27,3.26-.26,4.88.05,5.67.17,11.34.26,17.02.01.77,0,1.54,0,2.45Z"></path><path class="cls-1" d="m173.45,87.36c-.05.61-.14,1.16-.14,1.71.02,2.91.08,5.81.09,8.72,0,3.33-.05,6.66-.06,9.99,0,1.35,0,2.69.09,4.04.11,1.89.99,3.22,2.92,3.69,1.58.38,3.16.79,4.76,1.09,1.32.25,2.67.33,4,.52.61.09,1.22.27,1.9.43.11,1.34.19,2.58-.03,3.75-.27.1-.4.2-.53.2-13.82-.73-27.63-.74-41.45-.09-.05,0-.11-.08-.3-.21-.21-1.07-.11-2.25-.05-3.38.53-.59,1.18-.6,1.79-.73,2.15-.46,4.31-.87,6.43-1.42,2.47-.64,3.23-1.62,3.49-4.16.04-.35.04-.71.05-1.06.16-9.99.38-19.99.45-29.98.06-8.01-.04-16.02-.08-24.03,0-.92-.09-1.84-.23-2.75-.25-1.62-1.14-2.73-2.76-3.16-1.57-.42-3.15-.84-4.73-1.21-1.3-.31-2.62-.55-3.94-.82-.34-1.35-.14-2.59-.14-3.96.65-.03,1.12-.07,1.6-.06,7.16.19,14.32.54,21.48.55,5.67.01,11.34-.37,17.01-.58,4.13-.16,8.22.14,12.24,1.11,4.64,1.11,7.94,3.89,10.17,8.05,1.65,3.07,2.29,6.41,2.32,9.84.03,3.64-.54,7.21-2.05,10.56-2.88,6.4-7.81,10.5-14.4,12.66-2.63.87-5.36,1.32-8.14,1.42-3.63.14-7.23-.09-10.82-.63-.27-.04-.54-.05-.95-.08Zm-.35-35.76c-.05.47-.13.81-.13,1.15,0,9.07,0,18.14,0,27.22,0,.4.15.79.25,1.28,2.63.06,5.14.48,7.71.15,5.79-.73,9.42-3.85,10.85-9.53.9-3.56.99-7.15.26-10.75-1.12-5.57-4.44-8.78-10.06-9.83-2.91-.54-5.78-.28-8.88.31Z"></path><path class="cls-1" d="m518.88,119.53c-.05-.24-.15-.45-.13-.65.49-7.14.79-14.29.83-21.51,1.76-.52,3.43-.17,5.14-.26.17.61.34,1.07.44,1.54.52,2.57,1.12,5.12,2.04,7.58.32.86.65,1.73,1.05,2.56,2.28,4.78,6.19,7.25,11.37,7.77,1.76.18,3.53.08,5.29-.29,6.39-1.37,9.84-7.31,9.17-13.19-.38-3.33-1.83-6.09-4.39-8.24-1.14-.95-2.35-1.85-3.64-2.56-2.48-1.37-5.05-2.59-7.56-3.9-2.83-1.48-5.68-2.91-8.43-4.52-1.71-1-3.33-2.18-4.84-3.45-5.13-4.31-7.14-9.96-6.57-16.5.84-9.66,6.35-15.79,15.17-19.18,2.86-1.1,5.87-1.55,8.93-1.84,8.06-.78,15.82.6,23.48,2.95.27.08.54.18.8.29.06.02.09.1.24.28.16,2.06-.05,4.24-.12,6.43-.06,2.2-.15,4.4-.12,6.59.03,2.19.2,4.37.31,6.64-1.78.41-3.45.21-5.25.14-.22-.92-.43-1.8-.64-2.68-.52-2.21-1.14-4.38-2-6.49-1.88-4.63-5.28-7.2-10.23-7.88-2.58-.35-5.1-.27-7.57.53-7.35,2.38-8.48,10.1-5.58,14.82.83,1.35,1.79,2.58,3.11,3.45,2.07,1.36,4.16,2.72,6.33,3.9,2.3,1.25,4.71,2.3,7.09,3.41,3.61,1.68,7.07,3.61,10.22,6.07,3.82,3,6.41,6.8,7.44,11.57,2.72,12.65-4.44,24.83-16.85,28.29-3.02.84-6.1,1.38-9.21,1.58-8.36.55-16.58-.27-24.57-2.9-.26-.09-.5-.25-.75-.37Z"></path><path class="cls-1" d="m927.42,121.26v-3.49c.34-.12.72-.28,1.11-.37,1.8-.41,3.6-.79,5.4-1.2.62-.14,1.23-.34,1.84-.53,1.03-.32,1.72-1.05,2-2.05.28-1.02.48-2.07.56-3.12.1-1.34.02-2.69.06-4.04.36-13.33.39-26.67.33-40-.01-2.12-.23-4.25-.28-6.37-.05-2.08-1.22-3.29-3.05-3.89-1.34-.44-2.75-.66-4.14-.93-1.18-.23-2.38-.38-3.64-.58-.49-1.16-.26-2.32-.17-3.61,5.08-.19,10.01.35,14.96.37,4.97.02,9.94.06,14.9.05,4.9-.01,9.8,0,14.69-.16,4.96-.16,9.92-.23,14.93-.37.54,1.48.23,2.9.34,4.29.11,1.41.15,2.83.24,4.25.09,1.41.2,2.83.34,4.24.14,1.39.33,2.78.51,4.3-1.49.24-2.8.14-4.18.05-.25-.61-.45-1.12-.66-1.64-.75-1.83-1.54-3.66-2.26-5.51-.96-2.49-2.76-3.66-5.4-3.62-.85.01-1.7-.07-2.55-.07-5.75,0-11.5-.01-17.25,0-.56,0-1.11.07-1.59.1-.12.16-.17.21-.21.27-.04.06-.1.12-.1.18-.14,7.09-.29,14.18-.42,21.27-.01.57.02,1.13.05,1.7,0,.13.11.25.21.47.35.06.76.18,1.17.19,3.26.1,6.52.22,9.79.23,1.26,0,2.54-.25,3.79-.47,1.34-.24,2.36-.97,2.84-2.3.57-1.6,1.13-3.2,1.64-4.82.28-.87.45-1.78.69-2.74,1.24-.47,2.49-.21,3.85-.19.07.38.19.71.18,1.03-.22,8.01-.24,16.03.01,24.04.01.34-.06.68-.1,1.14-.71.04-1.33.1-1.95.09-.62,0-1.24-.07-1.93-.11-.38-1.69-.71-3.27-1.11-4.84-.26-1.03-.58-2.04-.93-3.05-.35-1.02-1.09-1.65-2.16-1.84-.91-.16-1.82-.38-2.73-.39-4.12-.06-8.23-.05-12.35-.06-.21,0-.41.08-.72.14-.07.38-.2.79-.2,1.19-.01,8.37-.01,16.74,0,25.11,0,.41.11.82.18,1.3.55.05,1.03.14,1.52.14,6.25,0,12.49,0,18.74,0,.43,0,.85-.05,1.28-.03,2.24.1,3.97-.92,5.41-2.51.76-.84,1.47-1.73,2.1-2.68,1.37-2.07,2.68-4.18,4.01-6.27.38-.59.73-1.2,1.09-1.8,1.39-.22,2.72-.18,3.97-.05.11.17.15.22.17.28.02.07.03.15.01.21-1.99,6.28-3.98,12.56-6,18.92-.56.4-1.29.21-1.98.19-5.11-.12-10.22-.34-15.32-.38-8.94-.07-17.89-.08-26.83-.02-4.11.03-8.23.26-12.34.39-.7.02-1.41,0-2.36,0Z"></path><path class="cls-1" d="m421.35,121.22v-3.3c.4-.15.76-.34,1.15-.42,2.07-.47,4.15-.93,6.23-1.37,2-.42,3.05-1.67,3.29-3.65.12-.98.28-1.97.29-2.95.12-13.54.23-27.08.31-40.63.01-2.69-.14-5.39-.21-8.08-.01-.35-.04-.71-.08-1.06-.17-1.37-.84-2.45-2.1-2.99-1.1-.47-2.27-.81-3.44-1.06-1.73-.37-3.48-.61-5.34-.92-.05-.6-.12-1.14-.15-1.69-.02-.56,0-1.13,0-1.81.56-.07,1.03-.2,1.5-.18,2.2.08,4.39.24,6.59.3,13.98.36,27.95.21,41.93-.02,2.55-.04,5.1-.19,7.66-.27.63-.02,1.26.03,1.86.04.1.32.21.52.22.72.16,5.31.49,10.62,1.12,15.9.01.12-.09.25-.19.49-1.2.27-2.45.07-3.77.11-.26-.58-.51-1.08-.72-1.59-.76-1.83-1.48-3.68-2.27-5.5-.31-.71-.72-1.38-1.14-2.04-.47-.75-1.16-1.26-2.03-1.42-.97-.18-1.96-.4-2.94-.41-6.67-.04-13.34-.04-20.01-.04-.27,0-.54.07-.94.13-.38,3.99-.43,7.94-.44,11.89-.01,3.96,0,7.93,0,11.96.4.11.73.26,1.06.27,3.55.06,7.09.13,10.64.1,1.12,0,2.25-.26,3.36-.45,1.29-.22,2.22-.97,2.67-2.19.66-1.79,1.24-3.61,1.82-5.43.24-.74.39-1.5.59-2.31,1.28-.33,2.53-.21,3.92-.11.04.62.12,1.16.1,1.7-.08,3.33-.27,6.66-.27,9.99,0,4.04.18,8.08.26,12.12.01.76.18,1.55-.16,2.36-1.27.25-2.51.25-3.84-.01-.34-1.49-.64-2.94-.99-4.37-.25-1.03-.57-2.05-.87-3.06-.41-1.36-1.33-2.14-2.74-2.33-1.05-.14-2.11-.34-3.17-.36-3.76-.05-7.52-.04-11.28-.04-.27,0-.55.08-.92.13-.07.35-.19.68-.19,1.01-.01,8.58,0,17.16,0,25.74,0,.28.07.55.12.93.41.08.81.21,1.21.21,6.39.01,12.77,0,19.16,0,.43,0,.85-.05,1.28-.06,2.45-.07,4.31-1.24,5.81-3.09,2.11-2.59,3.89-5.41,5.57-8.29.39-.67.79-1.33,1.2-2.03h4.02c.06.13.09.18.11.24.01.07.03.15,0,.21-2.01,6.34-4.02,12.68-6.04,19.03-.04.03-.09.08-.15.12-.06.03-.13.07-.2.07-.21.02-.42.05-.63.04-13.19-.48-26.38-.77-39.58-.59-5.95.08-11.91.35-17.86.53-.06,0-.12-.06-.38-.21Z"></path><path class="cls-1" d="m572.52,50.92c20.51.59,40.72.83,60.77,0,.21.24.27.29.31.35.04.05.11.11.11.17.15,6.73.59,13.45,1.31,20.22-1.52.52-2.97.26-4.5.19-.31-.85-.6-1.63-.87-2.43-.79-2.35-1.57-4.71-2.36-7.06-.2-.6-.45-1.19-.7-1.78-.74-1.73-2.02-2.7-3.92-2.78-2.69-.12-5.39-.23-8.08-.32-1.13-.04-2.26,0-3.49,0-.11.49-.25.88-.28,1.28-.04.56-.01,1.13-.01,1.7,0,15.04-.02,30.08,0,45.11,0,2.34.15,4.68.35,7,.2,2.33.72,2.9,3.04,3.45,2.14.52,4.3.92,6.45,1.37.34.07.67.16,1.05.24.21,1.2.18,2.3.03,3.52-.41.05-.75.13-1.08.12-2.34-.05-4.69-.08-7.02-.2-7.59-.4-15.18-.44-22.77.02-2.04.12-4.1.15-6.19.22-.43-1.23-.25-2.34-.19-3.51.8-.53,1.74-.53,2.62-.73,1.79-.42,3.61-.75,5.38-1.25,1.96-.55,2.53-1.3,2.64-3.33.14-2.48.29-4.96.29-7.44.03-15.11.02-30.22.02-45.33,0-.63,0-1.26,0-1.98-.52-.11-.92-.25-1.32-.26-2.7-.02-5.39-.04-8.09,0-.99.02-1.98.18-2.96.31-1.43.19-2.55.91-3.22,2.18-.53,1-1.02,2.03-1.39,3.1-.76,2.21-1.44,4.45-2.15,6.68-.21.67-.41,1.34-.63,2.05-1.48.22-2.86.19-4.35.03-.02-.47-.08-.81-.05-1.15.74-6.47.89-12.98,1.26-19.77Z"></path><path class="cls-1" d="m74.89,147.97c-1.49.12-2.67.17-3.92-.02-.29-.82-.18-1.6-.18-2.36,0-14.19,0-28.37,0-42.56,0-6.88,0-13.76,0-20.64,0-.77-.05-1.53-.07-2.23-.8-.51-1.46-.36-2.11-.17-.37.99-.22,1.92-.22,2.83-.03,20.71-.04,41.42-.07,62.14,0,.98.13,1.98-.23,3.08-.42-.12-.86-.13-1.15-.35-.38-.29-.65-.74-.95-1.13-3.69-4.77-7.37-9.55-11.07-14.31-.68-.87-1.16-1.75-1.15-2.89.02-3.55.01-7.09.03-10.64,0-.2.11-.39.2-.71,1.65-.3,3.36.03,5.12-.24.4-1.6.29-3.04-.77-4.39-2.02-2.56-3.96-5.19-6.03-7.71-.88-1.06-1.18-2.14-1.15-3.5.08-3.9.03-7.8.04-11.7,0-.7,0-1.4,0-2.21.49-.1.88-.25,1.28-.25,1.63-.03,3.26,0,4.9-.02.56,0,1.11-.06,1.63-.08.42-1.63.45-5.93.06-8-2.53-.24-5.15.06-7.75-.18-.08-1.26-.14-2.3-.21-3.47-.56-.05-1.04-.13-1.51-.13-2.34-.02-4.68.01-7.03-.02-2.18-.03-3.99-.9-5.39-2.58-.65-.77-1.08-1.65-1.34-2.63-.39-1.46-.34-2.92-.22-4.46.63-.07,1.11-.15,1.59-.16,14.57-.29,50.9-.14,52.97.21.34,1.47.36,3.47.05,4.58-.8,2.83-3.39,4.89-6.46,5.01-2.13.09-4.26.03-6.39.03-.7,0-1.4,0-2.21,0-.08.53-.18.93-.2,1.33-.03.64-.01,1.28-.01,1.91,0,21.99,0,43.98,0,65.97,0,.84-.04,1.67-.06,2.65Z"></path><path class="cls-1" d="m37.25,64.92v-25.16c.45-.07.85-.18,1.25-.19.99-.03,1.99-.01,2.98-.01,14.97,0,29.94,0,44.91,0,.76,0,1.55-.15,2.38.2.05.34.13.68.14,1.02.18,5,.06,22.26-.18,24.16-.35.05-.75.15-1.15.16-.92.03-1.84.01-2.77.01-14.97,0-29.94,0-44.91,0-.83,0-1.69.11-2.65-.19Zm13.82-19.69c.24,1.21.12,2.63.12,4.03,0,2.84-.02,5.67-.06,8.51-.03,1.7-.05,1.7-1.67,2.19-.27.08-.53.18-.77.33-.09.05-.13.25-.11.37.02.12.13.27.24.31.19.08.41.13.61.12,2.62-.22,5.24-.18,7.87.02.2.02.42-.04.61-.12.11-.05.21-.2.23-.32.01-.11-.07-.33-.15-.35-.6-.17-1.22-.3-1.83-.46-.76-.2-1.07-.55-1.09-1.35-.03-1.35-.03-2.69,0-4.04,0-.39.15-.79.24-1.25,1.24,0,2.39.12,3.5-.02,2.94-.39,4.92-2.9,4.72-5.85-.16-2.35-1.54-3.78-3.88-4.02-.49-.05-.99-.06-1.49-.06-2.84,0-5.68,0-8.51.03-.32,0-.65.1-1.09.18.44,1.22,1.71.75,2.53,1.75Zm14.65,15.51c2.42.85,4.81.83,7.21.45.41-.07.83-.22,1.21-.4,1.8-.85,2.87-2.26,3.1-4.26.23-2.01-.44-3.64-2.15-4.76-.65-.43-1.35-.79-2.03-1.15-.69-.37-1.41-.66-2.08-1.07-.48-.29-.96-.64-1.31-1.06-1.07-1.28-.54-3.06,1.04-3.62,1.65-.59,3.34.12,4.06,1.74.23.52.34,1.09.62,1.57.11.19.53.21,1,.37.05-1.6.14-2.99,0-4.45-2.22-.88-4.44-1.02-6.71-.57-.98.2-1.85.67-2.63,1.33-1.98,1.72-2.25,5.53.3,7.24.76.51,1.57.96,2.38,1.4.62.34,1.29.6,1.89.98.47.3.95.65,1.3,1.08,1.15,1.43.58,3.65-1.05,4.27-1.72.65-3.51-.07-4.28-1.76-.26-.58-.4-1.21-.61-1.81-.21-.63-.61-.7-1.26-.28v4.76Z"></path><path class="cls-1" d="m84.62,28.61c5.02,2.23,6.39,4.56,5.61,9.49-.78.31-1.63.17-2.46.17-14.04,0-28.08,0-42.12,0-2.55,0-5.11,0-7.66,0-.7,0-1.41,0-2.07,0-1.4-4.03.72-7.77,5.36-9.51.06-.41.17-.89.17-1.36.02-2.05-.04-4.11.03-6.16.21-5.76,2.18-10.82,6.36-14.86C53.84.59,61-1.37,69,.96c7.98,2.32,12.96,7.79,15.01,15.88.42,1.67.47,3.36.5,5.06.03,1.63,0,3.26.01,4.89,0,.63.06,1.26.09,1.82Zm-8.33-.07c.25-1.92.27-7.7.01-9.24-.1-.63-.25-1.25-.45-1.85-2.08-6.27-7.98-9.83-13.93-9.3-7.05.63-12.22,6.27-12.4,13.36-.05,1.98-.01,3.97,0,5.95,0,.34.08.68.13,1.11.46.08.86.2,1.27.22,6.25.25,23.57.09,25.37-.24Z"></path><path class="cls-1" d="m55.08,51.69c-.16-2.33-.1-4.49-.04-6.74,1.52-.41,2.77-.24,3.76.87.89,1,.96,3.34.18,4.62-.87,1.43-2.22,1.55-3.91,1.25Z"></path></svg> 