<svg width="100%" height="100%" fill="none" xmlns="http://www.w3.org/2000/svg" viewBox="0 0 40 40"><g clip-path="url(#a)" fill="currentColor"><path d="M12.277 4.575a14.16 14.16 0 0 0-4.297 5.769c-.93 2.281-1.195 4.683-.809 7.145a13.256 13.256 0 0 0 2.97 6.542 14.11 14.11 0 0 0 5.866 4.165c2.317.88 4.791 1.122 7.338.712l10.308-1.63-2.631-16.62-11.962 1.895.918 5.77 5.636-.894.749 4.695-3.79.604a7.214 7.214 0 0 1-3.887-.423 7.673 7.673 0 0 1-3.126-2.293 7.383 7.383 0 0 1-1.581-3.585 7.492 7.492 0 0 1 .398-3.898 7.744 7.744 0 0 1 2.27-3.15c1.025-.858 2.22-1.389 3.56-1.606l10.115-1.605L29.344 0 19.036 1.63c-2.547.398-4.828 1.4-6.759 2.945ZM29.85 36.608c-.639-.519-1.448-.796-2.232-1.026-1.907-.53-3.887-.736-5.866-.748-1.98 0-3.96.217-5.866.748-.785.23-1.593.507-2.233 1.026-1.183 1.05.277 1.968 1.231 2.306 2.185.808 4.55 1.074 6.868 1.086 2.317 0 4.683-.278 6.868-1.086.953-.338 2.414-1.256 1.23-2.306Z"></path></g><defs><clipPath id="a"><path fill="#fff" d="M0 0h40v40H0z"></path></clipPath></defs></svg>